<svg xmlns="http://www.w3.org/2000/svg" viewBox="0 0 32 32" fill="none">
    <defs>
        <linearGradient id="grad" x1="0%" y1="0%" x2="100%" y2="0%">
            <stop offset="0%" style="stop-color:#667eea;stop-opacity:1" />
            <stop offset="100%" style="stop-color:#764ba2;stop-opacity:1" />
        </linearGradient>
    </defs>
    <path d="M16 1C10.74 1 6.46 5.28 6.46 10.57C6.46 13.91 8.17 16.93 10.74 19.34L16 24L21.26 19.34C23.83 16.93 25.54 13.91 25.54 10.57C25.54 5.28 21.26 1 16 1ZM16 14.57C14.05 14.57 12.43 12.95 12.43 10.96C12.43 8.98 14.05 7.36 16 7.36C17.95 7.36 19.57 8.98 19.57 10.96C19.57 12.95 17.95 14.57 16 14.57Z" fill="url(#grad)"/>
</svg>